<?xml version="1.0" encoding="utf-8"?>
<!-- Generator: Adobe Illustrator 24.0.0, SVG Export Plug-In . SVG Version: 6.00 Build 0)  -->
<svg version="1.1" id="Layer_1" xmlns="http://www.w3.org/2000/svg" xmlns:xlink="http://www.w3.org/1999/xlink" x="0px" y="0px"
	 viewBox="0 0 26 26" style="enable-background:new 0 0 26 26;" xml:space="preserve">
<style type="text/css">
	.st0{fill:url(#SVGID_1_);}
</style>
<title>blast-dark</title>
<linearGradient id="SVGID_1_" gradientUnits="userSpaceOnUse" x1="3.817154e-02" y1="13.6828" x2="26" y2="13.6828">
	<stop  offset="0" style="stop-color:#00EADC"/>
	<stop  offset="0.5112" style="stop-color:#0A75FF"/>
	<stop  offset="1" style="stop-color:#0053FF"/>
</linearGradient>
<path class="st0" d="M25.2,6.5C23.4,4.9,20,7.2,20,7.2l0,0c-1.7-1.8-4.1-2.9-6.8-2.9c-4.1,0-7.6,2.6-8.9,6.3l0,0c0,0,0,0,0,0
	c0,0.1-0.1,0.1-0.1,0.2c-0.2,0.4-0.7,1.5-2.4,3.6c-2.2,2.8-2.1,4.8-1.1,6.1c0.9,1.2,3.2,1.6,5.8,0c1.7,1.7,4,2.7,6.6,2.7
	c4.2,0,7.8-2.8,9-6.6l0,0c0.3-0.7,1-1.6,1-1.6C25.7,12.1,26.9,8.1,25.2,6.5z M12.2,5.2c4.1-0.5,6.9,2.5,6.9,2.5s-1.5,1-4.5,3.8
	c-3.3,3-4.8,4.6-7.1,5.5c-1.9,0.8-3.2-0.4-2.8-4.2C5.2,8.9,8.1,5.7,12.2,5.2z M18.3,20.5c-4.2,3.3-10,0.9-10.9-0.6
	c0,0,2.3-1.4,5.6-5.3c3.3-4,6.1-5.5,6.7-5.4c0.6,0.1,0.9,0.2,1.5,1.7C21.7,12.4,22.5,17.2,18.3,20.5z"/>
</svg>
